# Apple ModelIO OBJ File: box
mtllib box.mtl
g 
v -0.5 0.7 0.5
v 0.5 0.7 0.5
v 0.5 0.7 -0.5
v -0.5 0.7 -0.5
v -0.5 0 0.5
v 0.5 0 0.5
v 0.5 0 -0.5
v -0.5 0 -0.5
vn 0 1 -0
vn 0 0 1
vn 1 0 -0
vn 0 0 -1
vn -1 0 -0
vt 0.166219 0.956192
vt 0.515344 0.956192
vt 0.515344 0.607067
vt 0.166219 0.607067
vt 0.519489 0.333585
vt 0.163777 0.333585
vt 0.163777 0.582583
vt 0.519489 0.582583
vt 0.881278 0.06649
vt 0.525566 0.06649
vt 0.525566 0.315488
vt 0.881278 0.315488
vt 0.882579 0.333122
vt 0.526867 0.333122
vt 0.526867 0.582121
vt 0.882579 0.582121
vt 0.519489 0.063784
vt 0.163777 0.063784
vt 0.163777 0.312783
vt 0.519489 0.312783
usemtl material_1
f 1/1/1 2/2/1 3/3/1
f 3/3/1 4/4/1 1/1/1
f 5/5/2 6/6/2 2/7/2
f 2/7/2 1/8/2 5/5/2
f 6/9/3 7/10/3 3/11/3
f 3/11/3 2/12/3 6/9/3
f 7/13/4 8/14/4 4/15/4
f 4/15/4 3/16/4 7/13/4
f 8/17/5 5/18/5 1/19/5
f 1/19/5 4/20/5 8/17/5
s off
