# Apple ModelIO OBJ File: bump_mac
mtllib bump_mac.mtl
g 
v -0.5 0.69832 -1.38956
v 0.5 0.69832 -1.38956
v 0.5 0.69832 -2.38956
v -0.5 0.69832 -2.38956
v -0.5 0.55832 -1.38956
v 0.5 0.55832 -1.38956
v 0.5 0.55832 -2.38956
v -0.5 0.55832 -2.38956
v 0.215655 0.133101 -1.66456
v 0.167634 0.132059 -1.71456
v -0.200651 0.124065 -1.71456
v -0.200651 0.124065 -1.66456
v 0.232367 0.073449 -1.66456
v -0.199349 0.064079 -1.66456
v 0.184345 0.072407 -1.71456
v -0.199349 0.064079 -1.71456
v 0.212921 0.246943 -2.08601
v 0.166082 0.219377 -2.05067
v 0.233918 0.200113 -2.12845
v 0.187079 0.172547 -2.09311
v -0.181065 0.316427 -2.08075
v -0.163431 0.272801 -2.05055
v -0.236569 0.28952 -2.12857
v -0.218935 0.245894 -2.09837
v -0.180147 0.353133 -1.72174
v -0.169083 0.304536 -1.71755
v -0.239276 0.346415 -1.66198
v -0.228212 0.297818 -1.65779
v 0.161692 0.418837 -1.72333
v 0.184114 0.373053 -1.71497
v 0.21532 0.43981 -1.66415
v 0.237743 0.394026 -1.65579
v 0.160759 0.446425 -2.05279
v 0.190041 0.409862 -2.09349
v 0.209393 0.485325 -2.08763
v 0.238675 0.448762 -2.12834
v -0.171863 0.521087 -2.0534
v -0.219663 0.504696 -2.09566
v -0.189465 0.577196 -2.08547
v -0.237265 0.560805 -2.12773
v -0.171863 0.535952 -1.68614
v -0.219663 0.521295 -1.68555
v -0.189465 0.593265 -1.68846
v -0.237265 0.578608 -1.68787
v -0.3 0.08 -1.58956
v 0.3 0.08 -1.58956
v 0.3 0.08 -2.18956
v -0.3 0.08 -2.18956
v -0.3 0 -1.58956
v 0.3 0 -1.58956
v 0.3 0 -2.18956
v -0.3 0 -2.18956
vn 0 1 -0
vn 0 0 1
vn 1 0 -0
vn 0 0 -1
vn -1 0 -0
vn -0.021701 0.999765 1e-06
vn -0.0217 0.999765 -0
vn 0 1e-06 1
vn -0.353909 0.904832 0.236703
vn -0.282339 0.92566 0.25187
vn 0.935915 0.341521 0.086181
vn 0.960091 0.268977 0.076653
vn 0.347043 -0.905024 -0.245952
vn 0.274323 -0.930147 -0.244077
vn -0.937695 -0.334171 -0.095172
vn -0.960857 -0.269192 -0.0655
vn 0.096362 0.592597 0.799715
vn 0.13117 0.689892 0.71193
vn 0.131506 0.790882 -0.597672
vn 0.132746 0.69762 -0.704063
vn -0.11307 -0.59605 -0.794947
vn -0.117613 -0.701433 -0.702965
vn -0.148481 -0.778185 0.610231
vn -0.112341 -0.694478 0.71069
vn 0.975126 0.221602 -0.004567
vn 0.935381 0.351558 -0.038337
vn -0.210456 0.972588 -0.098901
vn -0.351083 0.929213 -0.115342
vn -0.975227 -0.22019 0.021192
vn -0.932289 -0.360987 0.022912
vn 0.229699 -0.965999 0.118681
vn 0.367227 -0.925327 0.094415
vn 0.038458 -0.161236 -0.986166
vn 0.011392 -0.083432 -0.996448
vn -0.186669 0.966978 -0.173517
vn -0.20085 0.975565 -0.089061
vn -0.029327 0.165632 0.985752
vn -0.021042 0.081237 0.996473
vn 0.198863 -0.966495 0.162297
vn 0.18933 -0.978867 0.077291
vn -0.814644 -0.575872 -0.068757
vn -0.895022 -0.44467 -0.034703
vn -0.592576 0.802564 0.068884
vn -0.457366 0.883484 0.101357
vn 0.806907 0.58839 0.051946
vn 0.892895 0.447069 0.053547
vn 0.580663 -0.808867 -0.092546
vn 0.438546 -0.895125 -0.080179
vn -0.192951 -0.821335 0.536824
vn -0.178945 -0.792446 0.583102
vn 0.115145 0.519904 0.846429
vn 0.134086 0.562918 0.815563
vn 0.187296 0.825694 -0.532118
vn 0.186112 0.793729 -0.5791
vn -0.123828 -0.5214 -0.84428
vn -0.127344 -0.568711 -0.81262
vn 0.293371 -0.955217 0.038662
vn 0.293368 -0.955218 0.038663
vn 0.955999 0.293131 -0.011864
vn 0.955998 0.293134 -0.011865
vn -0.293371 0.955217 -0.038662
vn -0.293368 0.955217 -0.038662
vn -0.955999 -0.293131 0.011865
vn -0.955998 -0.293134 0.011864
vn -0.999765 -0.021701 -0
vn 0 0.040442 0.999182
vt 0.377136 0.69288
vt 0.973715 0.69288
vt 0.973715 0.096302
vt 0.377136 0.096302
vt 0.379645 0.852325
vt 0.977127 0.852325
vt 0.977127 0.732541
vt 0.379645 0.732541
vt 0.035807 0.11999
vt 0.044719 0.111431
vt 0.044719 0.045788
vt 0.035807 0.045788
vt 0.21778 0.289407
vt 0.22036 0.300144
vt 0.29457 0.301306
vt 0.294738 0.290613
vt 0.197515 0.264498
vt 0.200075 0.253757
vt 0.13168 0.254955
vt 0.131867 0.265648
vt 0.110926 0.119503
vt 0.104627 0.111154
vt 0.128567 0.120332
vt 0.134032 0.130183
vt 0.211799 0.127531
vt 0.21422 0.117178
vt 0.216497 0.171058
vt 0.210198 0.179407
vt 0.292882 0.179131
vt 0.28397 0.170571
vt 0.287468 0.129268
vt 0.292543 0.119211
vt 0.222753 0.119933
vt 0.225578 0.130183
vt 0.128795 0.267781
vt 0.132896 0.276844
vt 0.192369 0.278504
vt 0.200075 0.269916
vt 0.119667 0.301306
vt 0.109774 0.292783
vt 0.039549 0.29372
vt 0.035807 0.301285
vt 0.291214 0.193012
vt 0.295507 0.185807
vt 0.210198 0.188763
vt 0.217699 0.194892
vt 0.049671 0.14007
vt 0.041149 0.130177
vt 0.042086 0.202545
vt 0.04965 0.198802
vt 0.22425 0.080323
vt 0.224508 0.089014
vt 0.28412 0.087775
vt 0.288568 0.079429
vt 0.120149 0.218141
vt 0.10961 0.228793
vt 0.212104 0.071191
vt 0.212346 0.0625
vt 0.128567 0.063119
vt 0.133031 0.071457
vt 0.109027 0.139062
vt 0.119678 0.128523
vt 0.19839 0.246724
vt 0.200075 0.237795
vt 0.136139 0.24275
vt 0.13654 0.251624
vt 0.039122 0.218527
vt 0.04868 0.229077
vt 0.128567 0.097546
vt 0.1306 0.106403
vt 0.213289 0.108645
vt 0.213342 0.099761
vt 0.109485 0.202016
vt 0.120034 0.211575
vt 0.224365 0.274149
vt 0.21778 0.283008
vt 0.285567 0.2824
vt 0.283285 0.273509
vt 0.040178 0.294009
vt 0.048847 0.287799
vt 0.213357 0.053851
vt 0.20689 0.046551
vt 0.130975 0.046029
vt 0.128567 0.053967
vt 0.042018 0.203073
vt 0.035807 0.211741
vt 0.136099 0.147236
vt 0.128567 0.138716
vt 0.128953 0.211741
vt 0.136208 0.206522
vt 0.221875 0.097701
vt 0.226866 0.106918
vt 0.287603 0.108645
vt 0.294787 0.100182
vt 0.21138 0.301197
vt 0.20286 0.293665
vt 0.131768 0.294051
vt 0.126549 0.301306
vt 0.133899 0.07999
vt 0.128567 0.089014
vt 0.215717 0.088886
vt 0.208856 0.08016
vt 0.201559 0.147235
vt 0.201665 0.138716
vt 0.199661 0.235662
vt 0.200075 0.225446
vt 0.134615 0.222797
vt 0.128899 0.232798
vt 0.21138 0.222797
vt 0.20286 0.222902
vt 0.210198 0.201517
vt 0.210229 0.211741
vt 0.288694 0.211499
vt 0.283355 0.201292
vt 0.147259 0.172434
vt 0.147259 0.161742
vt 0.138347 0.161742
vt 0.138347 0.172434
vt 0.138347 0.150718
vt 0.13895 0.159609
vt 0.149612 0.15888
vt 0.149008 0.149989
vt 0.038642 0.642354
vt 0.323762 0.642354
vt 0.323762 0.357235
vt 0.038642 0.357235
vt 0.041439 0.715019
vt 0.326559 0.715019
vt 0.326559 0.66058
vt 0.041439 0.66058
usemtl material_1
f 1/1/1 2/2/1 3/3/1
f 3/3/1 4/4/1 1/1/1
f 5/5/2 6/6/2 2/7/2
f 2/7/2 1/8/2 5/5/2
f 6/5/3 7/6/3 3/7/3
f 3/7/3 2/8/3 6/5/3
f 7/6/4 8/5/4 4/8/4
f 4/8/4 3/7/4 7/6/4
f 8/6/5 5/5/5 1/8/5
f 1/8/5 4/7/5 8/6/5
f 9/9/6 10/10/6 11/11/6
f 11/11/7 12/12/7 9/9/7
f 13/13/8 9/14/8 12/15/8
f 12/15/2 14/16/2 13/13/2
f 10/17/4 15/18/4 16/19/4
f 16/19/4 11/20/4 10/17/4
f 17/21/9 18/22/9 10/10/9
f 10/10/10 9/9/10 17/21/10
f 19/23/11 17/24/11 9/25/11
f 9/25/12 13/26/12 19/23/12
f 20/27/13 19/28/13 13/29/13
f 13/29/14 15/30/14 20/27/14
f 18/31/15 20/32/15 15/33/15
f 15/33/16 10/34/16 18/31/16
f 21/35/17 22/36/17 18/37/17
f 18/37/18 17/38/18 21/35/18
f 23/39/19 21/40/19 17/41/19
f 17/41/20 19/42/20 23/39/20
f 24/43/21 23/44/21 19/45/21
f 19/45/22 20/46/22 24/43/22
f 22/47/23 24/48/23 20/49/23
f 20/49/24 18/50/24 22/47/24
f 25/51/25 26/52/25 22/53/25
f 22/53/26 21/54/26 25/51/26
f 27/55/27 25/56/27 21/40/27
f 21/40/28 23/39/28 27/55/28
f 28/57/29 27/58/29 23/59/29
f 23/59/30 24/60/30 28/57/30
f 26/61/31 28/62/31 24/48/31
f 24/48/32 22/47/32 26/61/32
f 29/63/33 30/64/33 26/65/33
f 26/65/34 25/66/34 29/63/34
f 31/67/35 29/68/35 25/56/35
f 25/56/36 27/55/36 31/67/36
f 32/69/37 31/70/37 27/71/37
f 27/71/38 28/72/38 32/69/38
f 30/73/39 32/74/39 28/62/39
f 28/62/40 26/61/40 30/73/40
f 33/75/41 34/76/41 30/77/41
f 30/77/42 29/78/42 33/75/42
f 35/79/43 33/80/43 29/68/43
f 29/68/44 31/67/44 35/79/44
f 36/81/45 35/82/45 31/83/45
f 31/83/46 32/84/46 36/81/46
f 34/85/47 36/86/47 32/74/47
f 32/74/48 30/73/48 34/85/48
f 37/87/49 38/88/49 34/89/49
f 34/89/50 33/90/50 37/87/50
f 39/91/51 37/92/51 33/93/51
f 33/93/52 35/94/52 39/91/52
f 40/95/53 39/96/53 35/97/53
f 35/97/54 36/98/54 40/95/54
f 38/99/55 40/100/55 36/101/55
f 36/101/56 34/102/56 38/99/56
f 41/103/57 42/104/57 38/88/57
f 38/88/58 37/87/58 41/103/58
f 43/105/59 41/106/59 37/107/59
f 37/107/60 39/108/60 43/105/60
f 44/109/61 43/110/61 39/96/61
f 39/96/62 40/95/62 44/109/62
f 42/111/63 44/112/63 40/113/63
f 40/113/64 38/114/64 42/111/64
f 14/115/65 12/116/65 11/117/65
f 11/117/65 16/118/65 14/115/65
f 42/119/66 41/120/66 43/121/66
f 43/121/66 44/122/66 42/119/66
f 45/123/1 46/124/1 47/125/1
f 47/125/1 48/126/1 45/123/1
f 49/127/2 50/128/2 46/129/2
f 46/129/2 45/130/2 49/127/2
f 50/127/3 51/128/3 47/129/3
f 47/129/3 46/130/3 50/127/3
f 51/128/4 52/127/4 48/130/4
f 48/130/4 47/129/4 51/128/4
f 52/128/5 49/127/5 45/130/5
f 45/130/5 48/129/5 52/128/5
s off
