# Blender v2.79 (sub 0) OBJ File: 'bump.blend'
# www.blender.org
mtllib bump_mac_fix.mtl
o bump_mac
v -0.494925 0.698320 0.496122
v 0.505075 0.698320 0.496122
v 0.505075 0.698320 -0.503878
v -0.494925 0.698320 -0.503878
v -0.494925 0.558320 0.496122
v 0.505075 0.558320 0.496122
v 0.505075 0.558320 -0.503878
v -0.494925 0.558320 -0.503878
v 0.220730 0.133101 0.221122
v 0.172709 0.132059 0.171122
v -0.195576 0.124065 0.171122
v -0.195576 0.124065 0.221122
v 0.237442 0.073449 0.221122
v -0.194274 0.064079 0.221122
v 0.189420 0.072407 0.171122
v -0.194274 0.064079 0.171122
v 0.217996 0.246943 -0.200328
v 0.171157 0.219377 -0.164988
v 0.238993 0.200113 -0.242768
v 0.192154 0.172547 -0.207428
v -0.175990 0.316427 -0.195068
v -0.158356 0.272801 -0.164868
v -0.231494 0.289520 -0.242888
v -0.213860 0.245894 -0.212688
v -0.175072 0.353133 0.163942
v -0.164008 0.304536 0.168132
v -0.234201 0.346415 0.223702
v -0.223137 0.297818 0.227892
v 0.166767 0.418837 0.162352
v 0.189189 0.373053 0.170712
v 0.220395 0.439810 0.221532
v 0.242818 0.394026 0.229892
v 0.165834 0.446425 -0.167108
v 0.195116 0.409862 -0.207808
v 0.214468 0.485325 -0.201948
v 0.243750 0.448762 -0.242658
v -0.166788 0.521087 -0.167718
v -0.214588 0.504696 -0.209978
v -0.184390 0.577196 -0.199788
v -0.232190 0.560805 -0.242048
v -0.166788 0.535952 0.199542
v -0.214588 0.521295 0.200132
v -0.184390 0.593265 0.197222
v -0.232190 0.578608 0.197812
v -0.294925 0.080000 0.296122
v 0.305075 0.080000 0.296122
v 0.305075 0.080000 -0.303878
v -0.294925 0.080000 -0.303878
v -0.294925 0.000000 0.296122
v 0.305075 0.000000 0.296122
v 0.305075 0.000000 -0.303878
v -0.294925 0.000000 -0.303878
vt 0.377136 0.692880
vt 0.973715 0.692880
vt 0.973715 0.096302
vt 0.377136 0.096302
vt 0.379645 0.852325
vt 0.977127 0.852325
vt 0.977127 0.732541
vt 0.379645 0.732541
vt 0.379645 0.852325
vt 0.977127 0.852325
vt 0.977127 0.732541
vt 0.379645 0.732541
vt 0.379645 0.852325
vt 0.379645 0.732541
vt 0.977127 0.852325
vt 0.977127 0.732541
vt 0.035807 0.119990
vt 0.044719 0.111431
vt 0.044719 0.045788
vt 0.035807 0.045788
vt 0.217780 0.289407
vt 0.220360 0.300144
vt 0.294570 0.301306
vt 0.294738 0.290613
vt 0.197515 0.264498
vt 0.200075 0.253757
vt 0.131680 0.254955
vt 0.131867 0.265648
vt 0.110926 0.119503
vt 0.104627 0.111154
vt 0.128567 0.120332
vt 0.134032 0.130183
vt 0.211799 0.127531
vt 0.214220 0.117178
vt 0.216497 0.171058
vt 0.210198 0.179407
vt 0.292882 0.179131
vt 0.283970 0.170571
vt 0.287468 0.129268
vt 0.292543 0.119211
vt 0.222753 0.119933
vt 0.225578 0.130183
vt 0.128795 0.267781
vt 0.132896 0.276844
vt 0.192369 0.278504
vt 0.200075 0.269916
vt 0.119667 0.301306
vt 0.109774 0.292783
vt 0.039549 0.293720
vt 0.035807 0.301285
vt 0.291214 0.193012
vt 0.295507 0.185807
vt 0.210198 0.188763
vt 0.217699 0.194892
vt 0.049671 0.140070
vt 0.041149 0.130177
vt 0.042086 0.202545
vt 0.049650 0.198802
vt 0.224250 0.080323
vt 0.224508 0.089014
vt 0.284120 0.087775
vt 0.288568 0.079429
vt 0.120149 0.218141
vt 0.109610 0.228793
vt 0.212104 0.071191
vt 0.212346 0.062500
vt 0.128567 0.063119
vt 0.133031 0.071457
vt 0.109027 0.139062
vt 0.119678 0.128523
vt 0.198390 0.246724
vt 0.200075 0.237795
vt 0.136139 0.242750
vt 0.136540 0.251624
vt 0.039122 0.218527
vt 0.048680 0.229077
vt 0.128567 0.097546
vt 0.130600 0.106403
vt 0.213289 0.108645
vt 0.213342 0.099761
vt 0.109485 0.202016
vt 0.120034 0.211575
vt 0.224365 0.274149
vt 0.217780 0.283008
vt 0.285567 0.282400
vt 0.283285 0.273509
vt 0.040178 0.294009
vt 0.048847 0.287799
vt 0.213357 0.053851
vt 0.206890 0.046551
vt 0.130975 0.046029
vt 0.128567 0.053967
vt 0.042018 0.203073
vt 0.035807 0.211741
vt 0.136099 0.147236
vt 0.128567 0.138716
vt 0.128953 0.211741
vt 0.136208 0.206522
vt 0.221875 0.097701
vt 0.226866 0.106918
vt 0.287603 0.108645
vt 0.294787 0.100182
vt 0.211380 0.301197
vt 0.202860 0.293665
vt 0.131768 0.294051
vt 0.126549 0.301306
vt 0.133899 0.079990
vt 0.128567 0.089014
vt 0.215717 0.088886
vt 0.208856 0.080160
vt 0.201559 0.147235
vt 0.201665 0.138716
vt 0.199661 0.235662
vt 0.200075 0.225446
vt 0.134615 0.222797
vt 0.128899 0.232798
vt 0.211380 0.222797
vt 0.202860 0.222902
vt 0.210198 0.201517
vt 0.210229 0.211741
vt 0.288694 0.211499
vt 0.283355 0.201292
vt 0.147259 0.172434
vt 0.147259 0.161742
vt 0.138347 0.161742
vt 0.138347 0.172434
vt 0.138347 0.150718
vt 0.138950 0.159609
vt 0.149612 0.158880
vt 0.149008 0.149989
vt 0.038642 0.642354
vt 0.323762 0.642354
vt 0.323762 0.357235
vt 0.038642 0.357235
vt 0.041439 0.715019
vt 0.326559 0.715019
vt 0.326559 0.660580
vt 0.041439 0.660580
vt 0.041439 0.715019
vt 0.326559 0.715019
vt 0.326559 0.660580
vt 0.041439 0.660580
vt 0.041439 0.715019
vt 0.041439 0.660580
vt 0.326559 0.715019
vt 0.326559 0.660580
vn 0.0000 1.0000 0.0000
vn 0.0000 -0.0000 1.0000
vn 1.0000 0.0000 0.0000
vn 0.0000 0.0000 -1.0000
vn -1.0000 0.0000 0.0000
vn -0.0217 0.9998 0.0000
vn -0.3539 0.9048 0.2367
vn -0.2823 0.9257 0.2519
vn 0.9359 0.3415 0.0862
vn 0.9601 0.2690 0.0767
vn 0.3471 -0.9050 -0.2460
vn 0.2743 -0.9301 -0.2441
vn -0.9377 -0.3342 -0.0952
vn -0.9609 -0.2692 -0.0655
vn 0.0964 0.5926 0.7997
vn 0.1312 0.6899 0.7120
vn 0.1315 0.7909 -0.5977
vn 0.1327 0.6976 -0.7041
vn -0.1131 -0.5960 -0.7950
vn -0.1176 -0.7014 -0.7030
vn -0.1485 -0.7782 0.6102
vn -0.1123 -0.6945 0.7107
vn 0.9751 0.2216 -0.0046
vn 0.9354 0.3516 -0.0383
vn -0.2100 0.9727 -0.0985
vn -0.2009 0.9755 -0.0892
vn -0.2105 0.9726 -0.0989
vn -0.3511 0.9292 -0.1153
vn -0.9752 -0.2202 0.0212
vn -0.9323 -0.3610 0.0229
vn 0.2297 -0.9660 0.1187
vn 0.3672 -0.9253 0.0944
vn 0.0385 -0.1612 -0.9862
vn 0.0114 -0.0837 -0.9964
vn -0.1867 0.9670 -0.1735
vn -0.2009 0.9756 -0.0891
vn -0.0293 0.1656 0.9858
vn -0.0210 0.0811 0.9965
vn 0.1989 -0.9665 0.1623
vn 0.1893 -0.9789 0.0773
vn -0.8146 -0.5759 -0.0688
vn -0.8950 -0.4447 -0.0347
vn -0.5926 0.8026 0.0689
vn -0.4574 0.8835 0.1014
vn 0.8069 0.5884 0.0519
vn 0.8929 0.4471 0.0535
vn 0.5807 -0.8089 -0.0925
vn 0.4385 -0.8951 -0.0802
vn -0.1930 -0.8213 0.5368
vn -0.1789 -0.7924 0.5831
vn 0.1151 0.5199 0.8464
vn 0.1341 0.5629 0.8156
vn 0.1873 0.8257 -0.5321
vn 0.1861 0.7938 -0.5790
vn -0.1238 -0.5214 -0.8443
vn -0.1273 -0.5688 -0.8126
vn 0.2934 -0.9552 0.0387
vn 0.9560 0.2931 -0.0119
vn -0.2934 0.9552 -0.0387
vn -0.9560 -0.2931 0.0119
vn -0.9998 -0.0217 0.0000
vn -0.0001 0.0404 0.9992
usemtl material_1
s 1
f 1/1/1 2/2/1 3/3/1
f 3/3/1 4/4/1 1/1/1
f 5/5/2 6/6/2 2/7/2
f 2/7/2 1/8/2 5/5/2
f 6/9/3 7/10/3 3/11/3
f 3/11/3 2/12/3 6/9/3
f 7/10/4 8/13/4 4/14/4
f 4/14/4 3/11/4 7/10/4
f 8/15/5 5/5/5 1/8/5
f 1/8/5 4/16/5 8/15/5
f 9/17/6 10/18/6 11/19/6
f 11/19/6 12/20/6 9/17/6
f 13/21/2 9/22/2 12/23/2
f 12/23/2 14/24/2 13/21/2
f 10/25/4 15/26/4 16/27/4
f 16/27/4 11/28/4 10/25/4
f 17/29/7 18/30/7 10/18/7
f 10/18/8 9/17/8 17/29/8
f 19/31/9 17/32/9 9/33/9
f 9/33/10 13/34/10 19/31/10
f 20/35/11 19/36/11 13/37/11
f 13/37/12 15/38/12 20/35/12
f 18/39/13 20/40/13 15/41/13
f 15/41/14 10/42/14 18/39/14
f 21/43/15 22/44/15 18/45/15
f 18/45/16 17/46/16 21/43/16
f 23/47/17 21/48/17 17/49/17
f 17/49/18 19/50/18 23/47/18
f 24/51/19 23/52/19 19/53/19
f 19/53/20 20/54/20 24/51/20
f 22/55/21 24/56/21 20/57/21
f 20/57/22 18/58/22 22/55/22
f 25/59/23 26/60/23 22/61/23
f 22/61/24 21/62/24 25/59/24
f 27/63/25 25/64/26 21/48/27
f 21/48/28 23/47/28 27/63/28
f 28/65/29 27/66/29 23/67/29
f 23/67/30 24/68/30 28/65/30
f 26/69/31 28/70/31 24/56/31
f 24/56/32 22/55/32 26/69/32
f 29/71/33 30/72/33 26/73/33
f 26/73/34 25/74/34 29/71/34
f 31/75/35 29/76/35 25/64/35
f 25/64/26 27/63/25 31/75/36
f 32/77/37 31/78/37 27/79/37
f 27/79/38 28/80/38 32/77/38
f 30/81/39 32/82/39 28/70/39
f 28/70/40 26/69/40 30/81/40
f 33/83/41 34/84/41 30/85/41
f 30/85/42 29/86/42 33/83/42
f 35/87/43 33/88/43 29/76/43
f 29/76/44 31/75/44 35/87/44
f 36/89/45 35/90/45 31/91/45
f 31/91/46 32/92/46 36/89/46
f 34/93/47 36/94/47 32/82/47
f 32/82/48 30/81/48 34/93/48
f 37/95/49 38/96/49 34/97/49
f 34/97/50 33/98/50 37/95/50
f 39/99/51 37/100/51 33/101/51
f 33/101/52 35/102/52 39/99/52
f 40/103/53 39/104/53 35/105/53
f 35/105/54 36/106/54 40/103/54
f 38/107/55 40/108/55 36/109/55
f 36/109/56 34/110/56 38/107/56
f 41/111/57 42/112/57 38/96/57
f 38/96/57 37/95/57 41/111/57
f 43/113/58 41/114/58 37/115/58
f 37/115/58 39/116/58 43/113/58
f 44/117/59 43/118/59 39/104/59
f 39/104/59 40/103/59 44/117/59
f 42/119/60 44/120/60 40/121/60
f 40/121/60 38/122/60 42/119/60
f 14/123/61 12/124/61 11/125/61
f 11/125/61 16/126/61 14/123/61
f 42/127/62 41/128/62 43/129/62
f 43/129/62 44/130/62 42/127/62
f 45/131/1 46/132/1 47/133/1
f 47/133/1 48/134/1 45/131/1
f 49/135/2 50/136/2 46/137/2
f 46/137/2 45/138/2 49/135/2
f 50/139/3 51/140/3 47/141/3
f 47/141/3 46/142/3 50/139/3
f 51/140/4 52/143/4 48/144/4
f 48/144/4 47/141/4 51/140/4
f 52/145/5 49/135/5 45/138/5
f 45/138/5 48/146/5 52/145/5
