# 3ds Max Wavefront OBJ Exporter v0.97b - (c)2007 guruware
# File Created: 23.01.2018 14:20:24

mtllib desktop.mtl

o Cylinder002
v  0.050000 -0.000000 0.054857
v  0.046985 0.017101 0.054857
v  0.046985 0.017101 0.069857
v  0.050000 -0.000000 0.069857
v  0.038302 0.032139 0.054857
v  0.038302 0.032139 0.069857
v  0.025000 0.043301 0.054857
v  0.025000 0.043301 0.069857
v  0.008682 0.049240 0.054857
v  0.008682 0.049240 0.069857
v  -0.008682 0.049240 0.054857
v  -0.008682 0.049240 0.069857
v  -0.025000 0.043301 0.054857
v  -0.025000 0.043301 0.069857
v  -0.038302 0.032139 0.054857
v  -0.038302 0.032139 0.069857
v  -0.046985 0.017101 0.054857
v  -0.046985 0.017101 0.069857
v  -0.050000 0.000000 0.054857
v  -0.050000 0.000000 0.069857
v  -0.046985 -0.017101 0.054857
v  -0.046985 -0.017101 0.069857
v  -0.038302 -0.032139 0.054857
v  -0.038302 -0.032139 0.069857
v  -0.025000 -0.043301 0.054857
v  -0.025000 -0.043301 0.069857
v  -0.008682 -0.049240 0.054857
v  -0.008682 -0.049240 0.069857
v  0.008682 -0.049240 0.054857
v  0.008682 -0.049240 0.069857
v  0.025000 -0.043301 0.054857
v  0.025000 -0.043301 0.069857
v  0.038302 -0.032139 0.054857
v  0.038302 -0.032139 0.069857
v  0.046985 -0.017101 0.054857
v  0.046985 -0.017101 0.069857
v  0.005124 0.032953 0.000069
v  0.005124 0.013894 0.057437
v  0.005124 0.007757 0.057460
v  0.005124 0.020813 -0.000050
v  -0.004876 0.032953 0.000069
v  -0.004876 0.020813 -0.000050
v  -0.004876 0.007757 0.057460
v  -0.004876 0.013894 0.057437
v  -0.031100 -0.012039 0.000069
v  -0.014594 -0.002509 0.057437
v  -0.009280 0.000559 0.057460
v  -0.020587 -0.005969 -0.000050
v  -0.026100 -0.020699 0.000069
v  -0.015587 -0.014629 -0.000050
v  -0.004280 -0.008101 0.057460
v  -0.009594 -0.011169 0.057437
v  0.025976 -0.020914 0.000069
v  0.009470 -0.011384 0.057437
v  0.004156 -0.008316 0.057460
v  0.015463 -0.014844 -0.000050
v  0.030976 -0.012254 0.000069
v  0.020463 -0.006184 -0.000050
v  0.009156 0.000344 0.057460
v  0.014470 -0.002724 0.057437
# 60 vertices

vn 1.000000 -0.000000 0.000000
vn 0.939693 0.342020 0.000000
vn 0.766044 0.642788 0.000000
vn 0.500000 0.866025 0.000000
vn 0.173648 0.984808 0.000000
vn -0.173648 0.984808 0.000000
vn -0.500000 0.866025 0.000000
vn -0.766044 0.642788 0.000000
vn -0.939693 0.342020 0.000000
vn -1.000000 0.000000 0.000000
vn -0.939693 -0.342020 0.000000
vn -0.766045 -0.642787 0.000000
vn -0.500000 -0.866025 0.000000
vn -0.173649 -0.984808 0.000000
vn 0.173648 -0.984808 0.000000
vn 0.500000 -0.866026 0.000000
vn 0.766044 -0.642788 0.000000
vn 0.939692 -0.342021 0.000000
vn 0.000000 0.000000 1.000000
vn 1.000000 -0.000000 -0.000000
vn -1.000000 0.000000 -0.000000
vn 0.000000 0.009831 -0.999952
vn -0.000000 -0.975184 -0.221396
vn 0.000000 0.948995 0.315292
vn -0.500000 0.866026 0.000000
vn -0.500000 0.866026 -0.000000
vn 0.500000 -0.866026 -0.000000
vn -0.008514 -0.004916 -0.999952
vn 0.844534 0.487592 -0.221396
vn -0.821854 -0.474497 0.315292
vn -0.500000 -0.866025 -0.000000
vn 0.500000 0.866025 -0.000000
vn 0.008514 -0.004916 -0.999952
vn -0.844534 0.487592 -0.221396
vn 0.821854 -0.474498 0.315292
vn 0.821854 -0.474497 0.315292
# 36 vertex normals

vt 0.846661 0.714375 1.000000
vt 0.846661 0.767824 1.000000
vt 0.800071 0.767824 1.000000
vt 0.800071 0.714375 1.000000
vt 0.846661 0.821274 1.000000
vt 0.800071 0.821274 1.000000
vt 0.846661 0.874724 1.000000
vt 0.800071 0.874724 1.000000
vt 0.846661 0.928173 1.000000
vt 0.800071 0.928173 1.000000
vt 0.846661 0.981622 1.000000
vt 0.800071 0.981622 1.000000
vt 0.846661 0.019533 1.000000
vt 0.846661 0.072982 1.000000
vt 0.800071 0.072982 1.000000
vt 0.800071 0.019533 1.000000
vt 0.846661 0.126432 1.000000
vt 0.800071 0.126432 1.000000
vt 0.846661 0.179881 1.000000
vt 0.800071 0.179881 1.000000
vt 0.846661 0.233331 1.000000
vt 0.800071 0.233331 1.000000
vt 0.846661 0.286780 1.000000
vt 0.800071 0.286780 1.000000
vt 0.846661 0.340229 1.000000
vt 0.800071 0.340229 1.000000
vt 0.846661 0.393679 1.000000
vt 0.800071 0.393679 1.000000
vt 0.846661 0.447128 1.000000
vt 0.800071 0.447128 1.000000
vt 0.846661 0.500577 1.000000
vt 0.800071 0.500577 1.000000
vt 0.846661 0.554027 1.000000
vt 0.800071 0.554027 1.000000
vt 0.846661 0.607476 1.000000
vt 0.800071 0.607476 1.000000
vt 0.846661 0.660926 1.000000
vt 0.800071 0.660926 1.000000
vt 0.388773 0.814018 0.000000
vt 0.361844 0.861379 0.000000
vt 0.320587 0.896532 0.000000
vt 0.388773 0.706303 0.000000
vt 0.269978 0.915237 0.000000
vt 0.216121 0.915237 0.000000
vt 0.124254 0.861379 0.000000
vt 0.165511 0.896532 0.000000
vt 0.097325 0.814018 0.000000
vt 0.087973 0.760161 0.000000
vt 0.124254 0.658942 0.000000
vt 0.097325 0.706304 0.000000
vt 0.165511 0.623789 0.000000
vt 0.216121 0.605085 0.000000
vt 0.320587 0.623789 0.000000
vt 0.269978 0.605085 0.000000
vt 0.361844 0.658942 0.000000
vt 0.398125 0.760161 0.000000
vt 0.053165 0.175012 0.000000
vt 0.334335 0.179075 0.000000
vt 0.343044 0.206260 0.000000
vt 0.069664 0.229022 0.000000
vt 0.053165 0.158325 0.000000
vt 0.067635 0.103736 0.000000
vt 0.341674 0.116270 0.000000
vt 0.333987 0.143761 0.000000
vt 0.354189 0.430219 0.000000
vt 0.410660 0.430219 0.000000
vt 0.410660 0.476736 0.000000
vt 0.354189 0.476736 0.000000
vt 0.354189 0.366236 0.000000
vt 0.621707 0.366236 0.000000
vt 0.621707 0.412753 0.000000
vt 0.354189 0.412753 0.000000
vt 0.320022 0.540718 0.000000
vt 0.053165 0.540718 0.000000
vt 0.053165 0.494201 0.000000
vt 0.320022 0.494201 0.000000
vt 0.336228 0.293457 0.000000
vt 0.058897 0.279462 0.000000
vt 0.053165 0.255414 0.000000
vt 0.325631 0.245710 0.000000
vt 0.053165 0.413531 0.000000
vt 0.065625 0.366236 0.000000
vt 0.337501 0.386614 0.000000
vt 0.330831 0.410419 0.000000
vt 0.416127 0.224384 0.000000
vt 0.359731 0.221467 0.000000
vt 0.362134 0.175012 0.000000
vt 0.418530 0.177929 0.000000
vt 0.060867 0.030339 0.000000
vt 0.329255 0.051678 0.000000
vt 0.321553 0.091220 0.000000
vt 0.053165 0.069881 0.000000
vt 0.336710 0.494201 0.000000
vt 0.607206 0.497301 0.000000
vt 0.613352 0.537114 0.000000
vt 0.342856 0.534015 0.000000
vt 0.336228 0.353720 0.000000
vt 0.058897 0.339725 0.000000
vt 0.053165 0.315677 0.000000
vt 0.325631 0.305973 0.000000
vt 0.053165 0.477514 0.000000
vt 0.065625 0.430219 0.000000
vt 0.337501 0.450597 0.000000
vt 0.330831 0.474401 0.000000
vt 0.414717 0.153776 0.000000
vt 0.358362 0.150157 0.000000
vt 0.361343 0.103736 0.000000
vt 0.417698 0.107355 0.000000
vt 0.341771 0.030339 0.000000
vt 0.610828 0.040151 0.000000
vt 0.613910 0.080318 0.000000
vt 0.344853 0.070506 0.000000
vt 0.619154 0.292759 0.000000
vt 0.348744 0.285252 0.000000
vt 0.356445 0.245710 0.000000
vt 0.626855 0.253218 0.000000
# 116 texture coords

s off
f 1/1/1 2/2/2 3/3/2 4/4/1 
f 2/2/2 5/5/3 6/6/3 3/3/2 
f 5/5/3 7/7/4 8/8/4 6/6/3 
f 7/7/4 9/9/5 10/10/5 8/8/4 
f 9/9/5 11/11/6 12/12/6 10/10/5 
f 11/13/6 13/14/7 14/15/7 12/16/6 
f 13/14/7 15/17/8 16/18/8 14/15/7 
f 15/17/8 17/19/9 18/20/9 16/18/8 
f 17/19/9 19/21/10 20/22/10 18/20/9 
f 19/21/10 21/23/11 22/24/11 20/22/10 
f 21/23/11 23/25/12 24/26/12 22/24/11 
f 23/25/12 25/27/13 26/28/13 24/26/12 
f 25/27/13 27/29/14 28/30/14 26/28/13 
f 27/29/14 29/31/15 30/32/15 28/30/14 
f 29/31/15 31/33/16 32/34/16 30/32/15 
f 31/33/16 33/35/17 34/36/17 32/34/16 
f 33/35/17 35/37/18 36/38/18 34/36/17 
f 35/37/18 1/1/1 4/4/1 36/38/18 
s 1
f 3/39/19 6/40/19 8/41/19 36/42/19 
f 8/41/19 10/43/19 12/44/19 16/45/19 
f 12/44/19 14/46/19 16/45/19 
f 16/45/19 18/47/19 20/48/19 24/49/19 
f 20/48/19 22/50/19 24/49/19 
f 24/49/19 26/51/19 28/52/19 32/53/19 
f 28/52/19 30/54/19 32/53/19 
f 16/45/19 24/49/19 32/53/19 8/41/19 
f 32/53/19 34/55/19 36/42/19 8/41/19 
f 4/56/19 3/39/19 36/42/19 
s 2
f 37/57/1 38/58/20 39/59/20 40/60/1 
s 4
f 41/61/21 42/62/21 43/63/21 44/64/10 
s 8
f 37/65/22 40/66/22 42/67/22 41/68/22 
s 16
f 40/69/23 39/70/23 43/71/23 42/72/23 
s 64
f 38/73/24 37/74/24 41/75/24 44/76/24 
s 2
f 45/77/25 46/78/26 47/79/26 48/80/25 
s 4
f 49/81/27 50/82/27 51/83/27 52/84/27 
s 8
f 45/85/28 48/86/28 50/87/28 49/88/28 
s 16
f 48/89/29 47/90/29 51/91/29 50/92/29 
s 64
f 46/93/30 45/94/30 49/95/30 52/96/30 
s 2
f 53/97/13 54/98/31 55/99/31 56/100/13 
s 4
f 57/101/32 58/102/32 59/103/32 60/104/32 
s 8
f 53/105/33 56/106/33 58/107/33 57/108/33 
s 16
f 56/109/34 55/110/34 59/111/34 58/112/34 
s 64
f 54/113/35 53/114/36 57/115/36 60/116/35 
# 39 polygons - 4 triangles

